<?xml version="1.0" encoding="iso-8859-1"?>
<!-- Uploaded to: SVG Repo, www.svgrepo.com, Generator: SVG Repo Mixer Tools -->
<svg height="800px" width="800px" version="1.1" id="Layer_1" xmlns="http://www.w3.org/2000/svg" xmlns:xlink="http://www.w3.org/1999/xlink" 
	 viewBox="0 0 496.158 496.158" xml:space="preserve">
<path style="fill:#29C183;" d="M248.082,0.003C111.07,0.003,0,111.063,0,248.085c0,137.001,111.07,248.07,248.082,248.07
	c137.006,0,248.076-111.069,248.076-248.07C496.158,111.062,385.088,0.003,248.082,0.003z"/>
<path style="fill:#845E35;" d="M435.832,149.573c-9.134-16.576-36.5-5.799-36.5-5.799L41.889,291.144l15.307,41.363L421.289,180.94
	C436.687,173.526,443.531,163.546,435.832,149.573z"/>
<g>
	<polygon style="fill:#997141;" points="333.728,170.579 244.559,207.417 329.228,219.329 417.514,182.254 	"/>
	<polygon style="fill:#997141;" points="241.561,208.912 152.978,245.204 237.061,257.662 326.395,220.579 	"/>
	<polygon style="fill:#997141;" points="148.728,246.704 58.353,284.329 144.103,296.579 233.728,258.954 	"/>
	<path style="fill:#997141;" d="M435.832,149.573c-9.134-16.576-36.5-5.799-36.5-5.799l-61.828,25.491l83.785,11.675
		C436.687,173.526,443.531,163.546,435.832,149.573z"/>
	
		<ellipse transform="matrix(-0.3471 -0.9378 0.9378 -0.3471 -225.6766 466.5158)" style="fill:#997141;" cx="49.55" cy="311.813" rx="22.049" ry="9.885"/>
	<path style="fill:#997141;" d="M55.728,285.412l-12.876,5.406c5.044-0.688,11.931,6.658,15.88,17.216
		c4.206,11.245,3.484,21.872-1.608,23.737c-5.095,1.865,1.606,0.249,1.606,0.249l82.082-34.108L55.728,285.412z"/>
	<path style="fill:#997141;" d="M41.889,291.144c-0.397,0.147-0.759,0.365-1.104,0.616l2.067-0.854
		C42.523,290.952,42.201,291.029,41.889,291.144z"/>
</g>
<ellipse transform="matrix(-0.347 -0.9379 0.9379 -0.347 -225.749 466.5093)" style="fill:#705634;" cx="49.534" cy="311.846" rx="19.225" ry="8.618"/>
<path style="fill:#D1CD3B;" d="M345.78,189.343c-4.203-11.36-11.73-19.044-16.834-17.199l-29.216,12.575
	c5.003-1.66,12.311,5.842,16.403,16.905c4.134,11.171,4.036,21.615-0.969,23.468c0,0,28.913-11.685,29.005-11.718
	C349.271,211.486,349.993,200.727,345.78,189.343z"/>
<g>
	<path style="fill:#EDE362;" d="M325.946,197.686c-4.203-11.36-11.73-19.045-16.833-17.2l-9.383,4.232
		c5.003-1.66,12.311,5.842,16.403,16.905c4.134,11.171,4.036,21.615-0.969,23.468c0,0,9.08-3.341,9.172-3.375
		C329.437,219.829,330.159,209.07,325.946,197.686z"/>
	<path style="fill:#EDE362;" d="M345.907,189.274c-4.203-11.36-11.73-19.045-16.834-17.2l-9.382,4.232
		c5.003-1.66,12.311,5.842,16.403,16.905c4.134,11.171,4.036,21.615-0.969,23.468c0,0,9.08-3.341,9.171-3.375
		C349.398,211.417,350.12,200.658,345.907,189.274z"/>
</g>
</svg>